<svg xmlns="http://www.w3.org/2000/svg" width="48" height="48" viewBox="0 0 48 48">
    <path d="M32,36H6a4,4,0,0,1-4-4V6A4,4,0,0,1,6,2H32a4,4,0,0,1,4,4V32A4,4,0,0,1,32,36Z"
          fill="#b3b3b3"/>
    <path d="M42,46H16a4,4,0,0,1-4-4V16a4,4,0,0,1,4-4H42a4,4,0,0,1,4,4V42A4,4,0,0,1,42,46Z"
          fill="#e6e6e6"/>
    <path d="M34,34H24V24H34Zm-8-2h6V26H26Z" fill="#444"/>
    <path d="M26,26H22a4,4,0,1,1,4-4Zm-4-6a2,2,0,0,0,0,4h2V22A2,2,0,0,0,22,20Z"
          fill="#444"/>
    <path d="M36,26H32V22a4,4,0,1,1,4,4Zm-2-2h2a2,2,0,1,0-2-2Z" fill="#444"/>
    <path d="M22,40a4,4,0,0,1,0-8h4v4A4,4,0,0,1,22,40Zm0-6a2,2,0,1,0,2,2V34Z"
          fill="#444"/>
    <path d="M36,40a4,4,0,0,1-4-4V32h4a4,4,0,0,1,0,8Zm-2-6v2a2,2,0,1,0,2-2Z" fill="#444"/>
</svg>